<svg width="50" height="50" viewBox="0 0 50 50" fill="none" xmlns="http://www.w3.org/2000/svg">
<g clip-path="url(#clip0_134_791)">
<path d="M26.7143 19.3518L31.9736 15.7046L40.1543 21.1438C40.1829 21.1623 40.215 21.1715 40.245 21.186C40.2707 21.1986 40.2936 21.2118 40.3207 21.221C40.4014 21.2494 40.4857 21.2679 40.5714 21.2679C40.6564 21.2679 40.74 21.2494 40.8214 21.221C40.8486 21.2118 40.8721 21.1979 40.8979 21.186C40.9271 21.1722 40.9593 21.1636 40.9864 21.1451L49.7007 15.3988C49.8886 15.2746 50 15.0745 50 14.8612V6.40686C50 6.32628 49.9793 6.24966 49.95 6.17569C49.9443 6.16182 49.94 6.14794 49.9336 6.13474C49.9007 6.06803 49.8571 6.00726 49.8021 5.95376C49.7907 5.94319 49.7786 5.93395 49.7671 5.92404C49.7457 5.90554 49.7264 5.88507 49.7021 5.86922L40.9879 0.122935C40.7379 -0.0415272 40.4043 -0.0408668 40.1557 0.124256L31.5129 5.87054C31.4893 5.88639 31.4707 5.9062 31.4493 5.9247C31.4371 5.93527 31.425 5.94385 31.4136 5.95508C31.3586 6.00858 31.315 6.06935 31.2821 6.1354C31.2757 6.14861 31.2714 6.16248 31.2657 6.17635C31.2357 6.24966 31.215 6.32694 31.215 6.40752V14.5811L25.9914 18.2032L13.7736 10.0977C13.5243 9.93257 13.19 9.93257 12.9407 10.0977L0.297857 18.4859C0.274286 18.5018 0.255 18.5223 0.233571 18.5401C0.221428 18.55 0.209286 18.5593 0.198571 18.5698C0.143571 18.6233 0.099286 18.6841 0.0664289 18.7508C0.0600003 18.764 0.0557141 18.7772 0.0499998 18.7911C0.0207141 18.8644 0 18.9417 0 19.0223V31.3074C0 31.5201 0.110714 31.7202 0.297857 31.8437L12.9407 40.2313C12.9686 40.2498 13.0007 40.2584 13.0307 40.2729C13.0564 40.2855 13.08 40.2987 13.1071 40.3086C13.1879 40.337 13.2721 40.3555 13.3571 40.3555C13.4421 40.3555 13.5264 40.337 13.6071 40.3086C13.6343 40.2994 13.6579 40.2855 13.6836 40.2729C13.7136 40.2584 13.7457 40.2498 13.7736 40.2313L26.0021 32.1185L31.2143 35.5445V43.5926C31.2143 43.8052 31.325 44.0047 31.5114 44.1289L40.1543 49.8752C40.1821 49.8937 40.2136 49.9022 40.2436 49.9168C40.2693 49.9293 40.2936 49.9432 40.3214 49.9531C40.4021 49.9815 40.4864 50 40.5714 50C40.6564 50 40.7407 49.9815 40.8221 49.9531C40.8486 49.9439 40.8714 49.9307 40.8971 49.9188C40.9271 49.9042 40.9593 49.8956 40.9871 49.8772L49.7014 44.1309C49.8886 44.0067 50 43.8059 50 43.5926V35.0722C50 35.0715 50 35.0709 50 35.0702C50 34.9903 49.9793 34.9144 49.95 34.8417C49.9443 34.8272 49.94 34.8133 49.9329 34.7994C49.9 34.7327 49.8564 34.6726 49.8014 34.6191C49.7907 34.6086 49.7786 34.6 49.7671 34.5901C49.745 34.5716 49.7257 34.5504 49.7014 34.5346L40.9857 28.7883C40.7371 28.6238 40.4029 28.6245 40.1543 28.7903L31.8264 34.3265L26.7143 30.9666V19.3518ZM39.8571 19.3195L32.6429 14.523V7.69548L39.8571 12.492V19.3195ZM40.5729 1.47298L48.0557 6.40686L40.5729 11.3407L33.1521 6.40686L40.5729 1.47298ZM13.3571 11.4471L24.775 19.0223L13.3571 26.5981L1.93929 19.0223L13.3571 11.4471ZM14.0714 38.409V27.7493L25.2857 20.3089V30.9686L14.0714 38.409ZM41.2857 48.0568V41.2227L48.5714 36.3622V43.2524L41.2857 48.0568ZM40.5729 30.1383L48.06 35.0755L40.5729 40.0702L33.1471 35.0755L40.5729 30.1383Z" fill="black"/>
</g>
<defs>
<clipPath id="clip0_134_791">
<rect width="50" height="50" fill="white"/>
</clipPath>
</defs>
</svg>
