<svg width="44" height="50" viewBox="0 0 44 50" fill="none" xmlns="http://www.w3.org/2000/svg">
<g clip-path="url(#clip0_134_770)">
<path fill-rule="evenodd" clip-rule="evenodd" d="M37.5803 8.30165V29.7237C41.4999 31.5881 44 35.2662 44 39.2269C44 45.1673 38.4993 50 31.7377 50C28.9578 50 26.3105 49.1863 24.0789 47.6464C23.0113 46.9423 22.0837 45.9994 21.3105 44.8663H6.05902C2.7179 44.8663 0 42.4791 0 39.5437V5.32319C0 2.38783 2.7179 0 6.05902 0H28.7803C28.7868 0 28.7928 0.00158697 28.799 0.00317972C28.8045 0.0046062 28.8099 0.0060379 28.8157 0.00633728C28.8219 0.00603744 28.8274 0.00460259 28.8331 0.00317392C28.8394 0.00158396 28.8456 0 28.8525 0C29.1583 0 29.4158 0.167934 29.5211 0.403042L37.3697 7.85425C37.3786 7.86201 37.3845 7.87134 37.3903 7.8806C37.395 7.88798 37.3997 7.89531 37.4058 7.90177C37.4519 7.94994 37.4959 7.99937 37.5241 8.05767C37.5608 8.13435 37.5803 8.21736 37.5803 8.30165ZM28.1312 1.26743H6.05902C3.51351 1.26743 1.44262 3.08682 1.44262 5.32256V38.2757H19.5215C19.6153 37.27 19.8577 36.3384 20.2509 35.5C21.9762 31.2959 26.5969 28.4537 31.7377 28.4537C33.2099 28.4537 34.685 28.7022 36.1377 29.1692V8.93536H28.8525C28.4535 8.93536 28.1312 8.65146 28.1312 8.30165V1.26743ZM24.9581 46.6413C26.9438 48.012 29.2852 48.7326 31.7377 48.7326C37.7037 48.7326 42.5574 44.4689 42.5574 39.2269C42.5574 35.6039 40.1965 32.2452 36.5409 30.6698C34.9706 30.0431 33.3477 29.7212 31.7377 29.7212C27.2029 29.7212 23.1274 32.2269 21.5968 35.9563C21.1424 36.9265 20.918 38.0177 20.918 39.2269C20.918 40.853 21.41 42.4759 22.3398 43.9208C23.0567 45.0539 23.9367 45.9683 24.9581 46.6413ZM24.3081 12.1673H6.9245C6.52633 12.1673 6.20318 11.8834 6.20318 11.5336C6.20318 11.1838 6.52633 10.8999 6.9245 10.8999H24.3081C24.707 10.8999 25.0294 11.1838 25.0294 11.5336C25.0294 11.8834 24.707 12.1673 24.3081 12.1673ZM17.6721 17.5538H6.9245C6.52633 17.5538 6.20318 17.2699 6.20318 16.9201C6.20318 16.5703 6.52633 16.2864 6.9245 16.2864H17.6721C18.0702 16.2864 18.3934 16.5703 18.3934 16.9201C18.3934 17.2699 18.0702 17.5538 17.6721 17.5538ZM7.30401 26.8455C8.90892 24.7726 9.98947 23.597 10.5218 23.3448C10.6675 23.675 10.6848 24.5444 10.6935 24.9868C10.7144 26.0432 10.7295 26.8062 11.51 26.9779C11.541 26.9855 11.5735 26.9906 11.6059 26.9931C12.3272 27.0628 12.7989 26.4373 13.4971 25.4887L13.4977 25.4879C13.7771 25.1081 14.3096 24.3839 14.6325 24.1154C14.7039 24.3505 14.7602 24.7244 14.7977 24.9747C14.9369 25.9 15.1115 27.0533 16.2223 27.1832C16.2829 27.1889 16.3442 27.1927 16.4062 27.1927C17.4052 27.1927 18.6135 26.3284 20.5198 21.3036C20.6461 20.9716 20.442 20.6129 20.064 20.502C19.6853 20.3905 19.2778 20.5711 19.1515 20.9025C17.6152 24.9519 16.7142 25.7377 16.4669 25.8892C16.355 25.6547 16.2735 25.1167 16.2274 24.8081C16.0896 23.8911 15.9171 22.7504 14.7869 22.7504C13.7936 22.7504 13.0608 23.746 12.2854 24.8005C12.2399 24.8632 12.1895 24.931 12.1368 25.0014V24.9944L12.1365 24.9827L12.1362 24.9724L12.1361 24.964V24.9627C12.1115 23.7349 12.0838 22.3441 10.9755 22.0856C9.78247 21.7358 8.40185 23.1744 6.11168 26.1325C5.88736 26.4221 5.97319 26.8163 6.30211 27.0134C6.63247 27.2105 7.08113 27.1344 7.30401 26.8455ZM23.5147 40.1773C24.1122 40.1773 24.5966 39.7517 24.5966 39.2267C24.5966 38.7017 24.1122 38.2761 23.5147 38.2761C22.9172 38.2761 22.4327 38.7017 22.4327 39.2267C22.4327 39.7517 22.9172 40.1773 23.5147 40.1773ZM41.1147 39.2267C41.1147 39.7517 40.6303 40.1773 40.0327 40.1773C39.4351 40.1773 38.9508 39.7517 38.9508 39.2267C38.9508 38.7017 39.4351 38.2761 40.0327 38.2761C40.6303 38.2761 41.1147 38.7017 41.1147 39.2267ZM31.8098 47.4651C32.4074 47.4651 32.8918 47.0395 32.8918 46.5145C32.8918 45.9896 32.4074 45.564 31.8098 45.564C31.2122 45.564 30.7278 45.9896 30.7278 46.5145C30.7278 47.0395 31.2122 47.4651 31.8098 47.4651ZM32.5312 38.5932H35.6328C36.0317 38.5932 36.3541 38.8764 36.3541 39.2269C36.3541 39.5773 36.0317 39.8606 35.6328 39.8606H32.5312V40.7478C32.5312 41.0982 32.2087 41.3815 31.8098 41.3815C31.4109 41.3815 31.0885 41.0982 31.0885 40.7478V39.8606H30.0065C29.6077 39.8606 29.2852 39.5773 29.2852 39.2269C29.2852 38.8764 29.6077 38.5932 30.0065 38.5932H31.0885V32.256C31.0885 31.9056 31.4109 31.6223 31.8098 31.6223C32.2087 31.6223 32.5312 31.9056 32.5312 32.256V38.5932Z" fill="black"/>
</g>
<defs>
<clipPath id="clip0_134_770">
<rect width="44" height="50" fill="white"/>
</clipPath>
</defs>
</svg>
