<svg width="50" height="50" viewBox="0 0 50 50" fill="none" xmlns="http://www.w3.org/2000/svg">
<g clip-path="url(#clip0_134_777)">
<path fill-rule="evenodd" clip-rule="evenodd" d="M23.5958 4.66792C23.5814 4.66901 23.5676 4.66901 23.5531 4.66901C23.1922 4.66901 22.8885 4.44696 22.8665 4.15869L22.591 0.575644C22.5683 0.275971 22.8575 0.0186428 23.237 0.000727544C23.6192 -0.0144733 23.9436 0.210282 23.9663 0.509955L24.2418 4.093C24.2645 4.39268 23.9753 4.65 23.5958 4.66792ZM27.0373 8.49033C27.1151 8.51313 27.195 8.52345 27.2735 8.52345C27.5545 8.52345 27.8189 8.38664 27.9202 8.16623L30.8816 1.76017C31.0118 1.47842 30.8279 1.1668 30.4705 1.06419C30.1117 0.961589 29.717 1.10708 29.5875 1.3883L26.6261 7.79435C26.4959 8.07611 26.6798 8.38773 27.0373 8.49033ZM20.0421 7.54633C19.8086 7.54633 19.5806 7.45241 19.4512 7.28303L16.5586 3.48228C16.363 3.22496 16.4684 2.89162 16.7948 2.73744C17.1213 2.58381 17.5441 2.66633 17.7397 2.92365L20.6323 6.72386C20.8279 6.98118 20.7225 7.31452 20.3961 7.4687C20.2852 7.52136 20.1626 7.54633 20.0421 7.54633ZM40.8769 33.1049L49.899 44.7769C50.0973 45.0332 49.9947 45.3671 49.6696 45.5229C49.3446 45.6798 48.9203 45.5983 48.7234 45.3421L40.0629 34.1375L29.0401 39.537L34.5429 46.733C34.7392 46.9903 34.6345 47.3236 34.3087 47.4783C34.1971 47.5315 34.0746 47.5565 33.9533 47.5565C33.7206 47.5565 33.4926 47.4637 33.3631 47.2943L27.5091 39.6396C27.3149 39.385 27.4154 39.0549 27.735 38.898L29.339 38.1125L24.9905 31.8052C24.7033 32.3595 24.4409 32.8134 24.2198 33.1157L20.1482 38.6738L21.266 39.2965C21.4182 39.3812 21.5201 39.5109 21.549 39.657C21.5773 39.8025 21.5297 39.9507 21.4168 40.0685L12.0504 49.7856C11.9154 49.9257 11.7094 50 11.5015 50C11.3672 50 11.2329 49.9691 11.1116 49.9067L0.367805 44.1521C0.0571979 43.9854 -0.0268242 43.6537 0.178411 43.4056L8.78726 33.0365C8.88988 32.9132 9.05103 32.828 9.23492 32.8003C9.41812 32.7737 9.6082 32.8058 9.76109 32.8904L10.8162 33.4784C11.4904 30.8633 11.7246 28.5104 11.5015 26.4866C11.3189 24.2835 10.2928 22.308 8.26935 20.258C8.21494 20.2064 8.09649 20.1022 7.95186 19.9752C6.85543 19.0099 6.30584 18.4714 6.21011 18.0805C6.09303 17.6771 6.21425 17.1039 6.76177 16.7743C7.1688 16.5306 7.9126 16.353 9.15021 16.8992C9.69773 17.15 10.206 17.4269 10.6757 17.7113L8.64194 14.7309C8.05103 14.0718 8.23836 13.2076 9.08891 12.7043C9.94429 12.1978 11.1702 12.3042 11.8802 12.9443C11.9002 12.9622 11.9195 12.9812 11.936 13.0013L13.4057 14.7477L12.0386 11.5143C11.7721 11.1289 11.7163 10.6652 11.8878 10.2325C12.0662 9.78195 12.4739 9.41442 13.0063 9.22386C13.5579 9.00508 14.2391 8.97359 14.8541 9.1446C15.4243 9.30367 15.8865 9.62886 16.1213 10.036L18.1709 14.4611L17.9753 12.3634C17.7907 11.5045 18.58 10.6582 19.779 10.4866C21.0042 10.3981 22.0711 11.0697 22.1723 11.9486L23.246 22.8552L24.4085 21.3281C24.8486 20.7819 26.1599 19.1565 28.1771 20.1104L28.5215 20.2732C29.1716 20.581 29.465 21.1777 29.2329 21.7249C28.757 23.0224 27.058 27.4393 25.6344 30.4871C25.6394 30.4929 25.6455 30.4979 25.6517 30.5028C25.6593 30.509 25.667 30.5151 25.6723 30.5229L30.5098 37.5386L37.2178 34.2525L34.3445 28.5392C33.6007 27.1054 34.1221 25.46 35.6434 24.4496L41.2943 20.7553C41.5381 20.5897 41.5298 20.3487 41.4375 20.1798C41.3914 20.0973 41.2089 19.8259 40.7729 19.8671C39.8054 19.9569 38.1156 20.6262 37.5489 20.8506L37.5415 20.8536L34.9485 21.8758C34.6627 21.9893 34.3149 21.9312 34.111 21.7374C33.9065 21.5436 33.8982 21.2645 34.0911 21.0631L40.7034 14.1685C40.921 13.9665 40.921 13.6685 40.7295 13.492C40.5663 13.3313 40.3769 13.3004 40.244 13.3004C40.0229 13.3004 39.8025 13.3867 39.6558 13.5317L34.4905 18.6343C34.2543 18.8688 33.8211 18.9079 33.5229 18.72C33.3087 18.5848 33.2295 18.3704 33.2874 18.1728C33.2646 18.074 33.2639 17.9719 33.3156 17.8726L37.3101 10.1636C37.3852 10.0317 37.3879 9.92527 37.328 9.82755C37.2454 9.69292 37.0546 9.58488 36.817 9.53819C36.5236 9.48553 36.0808 9.63917 35.9465 9.85144L31.6909 17.4817C31.5387 17.7559 31.1338 17.8813 30.7839 17.7602C30.5043 17.6636 30.3562 17.4383 30.3845 17.2113C30.3845 17.2007 30.3827 17.1903 30.3809 17.18C30.3783 17.1655 30.3758 17.1511 30.3783 17.1359L31.4802 10.7298C31.4864 10.6962 31.4953 10.6631 31.5091 10.631C31.5546 10.523 31.5036 10.428 31.4692 10.3813C31.3989 10.2852 31.2756 10.2173 31.1324 10.1945C30.8204 10.1403 30.5043 10.2733 30.4086 10.4285L28.2866 17.3362C28.2687 17.3932 28.2384 17.4448 28.2012 17.492C28.1985 17.4964 28.1978 17.5012 28.1944 17.505C28.1489 17.5599 28.0904 17.606 28.0243 17.644C28.0117 17.6513 27.9973 17.6568 27.9828 17.6623C27.9735 17.6658 27.9643 17.6693 27.9554 17.6733C27.9044 17.6961 27.8528 17.7157 27.7963 17.7276C27.7905 17.7289 27.7854 17.7311 27.7802 17.7333C27.7743 17.7359 27.7682 17.7384 27.7612 17.7396C27.7505 17.7413 27.74 17.7407 27.7295 17.7401C27.7203 17.7396 27.7112 17.7391 27.7019 17.7401C27.6913 17.7413 27.6809 17.7433 27.6705 17.7452C27.6532 17.7484 27.636 17.7515 27.6179 17.7515C27.593 17.7515 27.5677 17.7483 27.5426 17.745L27.516 17.7417C27.5101 17.7411 27.5043 17.7407 27.4986 17.7403L27.485 17.7392L27.4753 17.7379L27.4704 17.7374L27.4654 17.7371C27.4621 17.737 27.4588 17.7369 27.4554 17.7363C27.4358 17.7327 27.419 17.7253 27.4021 17.7179C27.391 17.713 27.3799 17.7082 27.3679 17.7043L27.3458 17.6975C27.3045 17.6849 27.2636 17.6725 27.2274 17.6527C27.2008 17.6382 27.1792 17.6198 27.1574 17.6013C27.1498 17.5949 27.1423 17.5884 27.1344 17.5821L27.1141 17.5664C27.0888 17.5472 27.0637 17.528 27.0442 17.5045C27.0218 17.4771 27.008 17.4468 26.994 17.416L26.9843 17.3948C26.9796 17.3847 26.9732 17.3753 26.9669 17.366C26.9577 17.3522 26.9485 17.3385 26.9444 17.3226L25.8417 13.251C25.8321 13.2141 25.8266 13.1761 25.8266 13.1381C25.8266 13.0507 25.7109 12.9209 25.5518 12.9209C25.4072 12.9209 25.2784 12.9958 25.2095 13.0838L25.3459 18.9372C25.3527 19.2369 25.0497 19.4844 24.6696 19.4898H24.6565C24.2818 19.4898 23.9746 19.2531 23.9678 18.9567L23.83 12.985C23.8286 12.9236 23.8403 12.8623 23.8651 12.8037C24.1062 12.2331 24.7997 11.8351 25.5518 11.8351C26.4196 11.8351 27.1572 12.3954 27.2019 13.0729L27.6599 14.7656L29.0828 10.1332C29.089 10.112 29.0973 10.0909 29.1069 10.0702C29.4313 9.38836 30.4685 8.96599 31.4168 9.13374C31.9334 9.21518 32.392 9.47251 32.6606 9.83733C32.9058 10.169 32.9685 10.561 32.8376 10.9204L32.3879 13.5376L34.7006 9.39107C35.1338 8.70704 36.1923 8.31724 37.1331 8.48228C37.7901 8.61095 38.3067 8.92853 38.5684 9.35578C38.808 9.74612 38.8101 10.1859 38.5746 10.5936L36.1696 15.2352L38.5801 12.8536C38.9926 12.447 39.5987 12.2141 40.244 12.2141C40.8494 12.2141 41.4134 12.4269 41.7908 12.7988C42.4045 13.3628 42.4052 14.2694 41.7764 14.8482L36.9644 19.8671C38.1111 19.4133 39.5518 18.8872 40.6214 18.7879C41.5264 18.7146 42.3432 19.0903 42.7034 19.7504C43.0629 20.4084 42.8583 21.1283 42.1827 21.5848L36.5277 25.2824C35.4685 25.9849 35.1042 27.1315 35.6235 28.1337L38.4079 33.6695L39.9251 32.9263C40.0815 32.8503 40.2702 32.8253 40.4485 32.8595C40.6276 32.8926 40.7812 32.9811 40.8769 33.1049ZM19.018 38.0446L23.0263 32.5734C24.2419 30.91 27.0387 23.8025 27.9203 21.403C27.9636 21.3009 27.8693 21.2303 27.8149 21.2048L27.4705 21.042C27.0842 20.8596 26.605 20.6333 25.5821 21.8997L23.319 24.8736C23.1647 25.0761 22.8631 25.1766 22.5704 25.1223C22.2784 25.068 22.0649 24.8715 22.0414 24.6359L20.8018 12.0409C20.7818 11.8699 20.6268 11.7521 20.5366 11.6973C20.3713 11.5974 20.1626 11.548 19.9671 11.5626C19.642 11.6115 19.2708 11.8867 19.3445 12.2353L19.903 18.2021C19.9042 18.2149 19.9011 18.2266 19.8979 18.2383C19.8956 18.2471 19.8933 18.2558 19.8927 18.2651C19.9099 18.498 19.7446 18.7222 19.4519 18.8063C19.0945 18.909 18.6991 18.764 18.569 18.4822L14.85 10.4475C14.7893 10.346 14.6165 10.2304 14.3968 10.169C14.1337 10.0957 13.8444 10.1082 13.6013 10.2038C13.3376 10.2982 13.2411 10.4644 13.2053 10.5556C13.142 10.7146 13.1633 10.8818 13.2632 11.0132C13.2887 11.0474 13.31 11.0832 13.3258 11.1207L16.3265 18.2168L16.4147 18.3216C16.6248 18.5713 16.538 18.9084 16.2212 19.074C16.1062 19.1337 15.9781 19.1533 15.85 19.1543C15.8397 19.1554 15.8295 19.1572 15.8192 19.159C15.8033 19.1618 15.7874 19.1647 15.7714 19.1647C15.4829 19.1647 15.2143 19.0208 15.1179 18.7933L15.0772 18.6967L10.8196 13.6364C10.5813 13.4448 10.186 13.4144 9.91743 13.5724C9.71495 13.6918 9.57239 13.897 9.77969 14.1153C9.80035 14.1375 9.81894 14.1603 9.83341 14.1837L14.2411 20.644C14.2516 20.6592 14.2562 20.6751 14.2608 20.6912C14.2638 20.7016 14.2668 20.712 14.2714 20.7222L14.2814 20.7439C14.2937 20.7704 14.3058 20.7965 14.3107 20.8243C14.3158 20.8535 14.3139 20.8817 14.3119 20.9103L14.3107 20.9279L14.31 20.9405C14.3083 20.9704 14.3067 20.9999 14.2976 21.0295C14.2885 21.0578 14.2733 21.0834 14.2577 21.1096L14.248 21.1261L14.238 21.143C14.2233 21.1681 14.2089 21.1926 14.1881 21.2157C14.1658 21.2404 14.1374 21.2607 14.1084 21.2814L14.0903 21.2944C14.0805 21.3015 14.0719 21.3094 14.0634 21.3172C14.0505 21.3292 14.0375 21.3411 14.0201 21.3503C14.0149 21.3532 14.0092 21.3545 14.0034 21.3559C13.9984 21.3571 13.9932 21.3583 13.9884 21.3606C13.9857 21.3621 13.9832 21.3637 13.9809 21.3653L13.9759 21.3692C13.9713 21.3728 13.9668 21.3764 13.9608 21.3791C13.9023 21.4041 13.8403 21.4198 13.7783 21.4301C13.7725 21.4309 13.7668 21.4313 13.7611 21.4317C13.7554 21.4322 13.7497 21.4326 13.7439 21.4334L13.7215 21.4362C13.693 21.4399 13.6641 21.4437 13.6358 21.4437C13.613 21.4437 13.5907 21.4405 13.5682 21.4373C13.5587 21.436 13.549 21.4345 13.5393 21.4334C13.5325 21.4325 13.5256 21.432 13.5187 21.4315C13.5084 21.4307 13.498 21.4299 13.4877 21.4279C13.4112 21.4149 13.3382 21.3927 13.2714 21.3595L13.2662 21.3569L13.2592 21.3528L13.2506 21.3473L13.2442 21.3431L13.2391 21.34C13.1833 21.3085 13.1337 21.27 13.091 21.2249C13.0876 21.2208 13.0829 21.2178 13.0783 21.2149C13.0736 21.2119 13.069 21.2089 13.0655 21.2048C13.0476 21.1842 11.2508 19.1163 8.46908 17.8411C7.89745 17.5887 7.63298 17.6169 7.59993 17.6364C7.56411 17.6581 7.53381 17.77 7.55516 17.8378C7.56136 17.8563 7.56549 17.8742 7.56893 17.8927C7.67414 18.1003 8.65392 18.9632 8.97852 19.249L8.9801 19.2504C9.13919 19.3905 9.26867 19.505 9.34442 19.5767C11.5593 21.821 12.6771 23.9855 12.8775 26.4035C13.1241 28.6424 12.8451 31.2569 12.0483 34.163L19.018 38.0446ZM2.89257 27.633C4.48762 27.633 5.78515 26.6102 5.78515 25.3529C5.78515 24.0956 4.48762 23.0728 2.89257 23.0728C1.29753 23.0728 0 24.0956 0 25.3529C0 26.6108 1.29753 27.633 2.89257 27.633ZM2.89257 24.1586C3.72798 24.1586 4.40773 24.6944 4.40773 25.3529C4.40773 26.0114 3.72798 26.5473 2.89257 26.5473C2.05717 26.5473 1.37742 26.0114 1.37742 25.3529C1.37742 24.6944 2.05717 24.1586 2.89257 24.1586ZM43.5367 24.5506C43.5704 24.4046 43.6786 24.2754 43.8363 24.1934C43.9933 24.1119 44.1861 24.0848 44.3721 24.1179L47.5195 24.6945L48.0822 22.1646C48.1483 21.8693 48.5064 21.6717 48.8797 21.7238C49.2537 21.7759 49.5043 22.0571 49.4389 22.3524L48.7502 25.4469C48.7171 25.5935 48.609 25.7232 48.4513 25.8057C48.2936 25.8883 48.1007 25.9154 47.9155 25.8818L44.7647 25.3052L44.2729 27.4577C44.213 27.7205 43.9231 27.9045 43.5959 27.9045C43.5553 27.9045 43.5146 27.9018 43.4733 27.8959C43.0987 27.8427 42.8494 27.5604 42.9169 27.2656L43.5367 24.5506ZM2.41047 12.9752C3.32369 12.9752 4.06337 12.3921 4.06337 11.6722C4.06337 10.9524 3.32369 10.3693 2.41047 10.3693C1.49724 10.3693 0.757568 10.9524 0.757568 11.6722C0.757568 12.3921 1.49793 12.9752 2.41047 12.9752ZM45.2481 8.36066C45.2481 8.96031 44.6314 9.44643 43.8707 9.44643C43.11 9.44643 42.4933 8.96031 42.4933 8.36066C42.4933 7.761 43.11 7.27489 43.8707 7.27489C44.6314 7.27489 45.2481 7.761 45.2481 8.36066Z" fill="black"/>
</g>
<defs>
<clipPath id="clip0_134_777">
<rect width="50" height="50" fill="white"/>
</clipPath>
</defs>
</svg>
