<svg width="58" height="45" viewBox="0 0 58 45" fill="none" xmlns="http://www.w3.org/2000/svg">
<g clip-path="url(#clip0_134_784)">
<path d="M51.5309 11.5012L55.563 15.4953L58 1.5566L44.5618 4.59906L48.3928 8.39363L44.9872 11.816H39.8967C39.5117 11.816 39.2005 12.133 39.2005 12.5236V17.5316L34.1873 22.5156V0.707547C34.1873 0.316981 33.876 0 33.491 0H25.7623C25.378 0 25.066 0.316981 25.066 0.707547V17.2868L19.9832 12.2887V6.65094C19.9832 6.26038 19.6713 5.9434 19.2869 5.9434H11.5582C11.1739 5.9434 10.8619 6.26038 10.8619 6.65094V23.3597C10.7916 23.3583 10.7234 23.3491 10.653 23.3491C4.80432 23.3491 0 28.1604 0 34.1745C0 40.1179 4.7347 45 10.653 45C15.1113 45 18.9555 42.2009 20.5346 38.2076H53.0564C53.4414 38.2076 53.7527 37.8913 53.7527 37.5V30.283C53.7527 29.8917 53.4414 29.5755 53.0564 29.5755H48.3217V14.7241L51.5309 11.5012ZM40.593 13.2311H46.9292V29.5047H40.593V13.2311ZM26.4585 1.41509H32.7947V29.5047H26.4585V1.41509ZM25.066 23.4425V29.5755H20.2735C20.1796 29.3752 20.089 29.1736 19.9838 28.9804V18.4443L25.066 23.4425ZM12.2545 7.35849H18.5907V27C16.9732 25.1561 14.7541 23.8769 12.2545 23.4863V7.35849ZM11.9063 38.7028H11.2797V40.4717C11.2797 40.8962 11.0012 41.1792 10.5834 41.1792C10.1657 41.1792 9.88715 40.8962 9.88715 40.4717V38.7028H8.07683C7.65907 38.7028 7.38055 38.4198 7.38055 37.9953C7.38055 37.5708 7.65907 37.2877 8.07683 37.2877H11.9063C12.6027 37.2877 13.1597 36.7217 13.1597 36.0849C13.1597 35.4481 12.6027 34.8821 11.9063 34.8821H9.33013C7.86794 34.8821 6.68428 33.6792 6.68428 32.2642C6.68428 30.8491 7.86794 29.6462 9.33013 29.6462H9.95679V27.9481C9.95679 27.5236 10.2353 27.2406 10.653 27.2406C11.0708 27.2406 11.3493 27.5236 11.3493 27.9481V29.6462H13.1597C13.5774 29.6462 13.856 29.9292 13.856 30.3538C13.856 30.7075 13.5774 31.0613 13.1597 31.0613H9.33013C8.63385 31.0613 8.07683 31.6274 8.07683 32.2642C8.07683 32.9009 8.63385 33.467 9.33013 33.467H11.9063C13.3686 33.467 14.5522 34.6698 14.5522 36.0849C14.5522 37.5 13.3686 38.7028 11.9063 38.7028ZM52.3602 36.7925H20.9803C21.185 35.9533 21.3061 35.0802 21.3061 34.1745C21.3061 33.0679 21.1384 31.9988 20.8299 30.9906H52.3602V36.7925ZM34.1873 29.5755V28.7363L39.2005 23.7573V29.5755H34.1873Z" fill="black"/>
</g>
<defs>
<clipPath id="clip0_134_784">
<rect width="58" height="45" fill="white"/>
</clipPath>
</defs>
</svg>
