<svg width="55" height="45" viewBox="0 0 55 45" fill="none" xmlns="http://www.w3.org/2000/svg">
<g clip-path="url(#clip0_134_763)">
<path fill-rule="evenodd" clip-rule="evenodd" d="M41.2455 12.1467H51.5948C53.4726 12.1467 55 13.4961 55 15.1544V38.3482C55 38.6681 54.7073 38.9267 54.3451 38.9267H40.5905H40.525H24.3333C22.4849 42.5036 18.4064 45 13.6709 45C7.20623 45 1.94675 40.3559 1.94675 34.647C1.94675 28.938 7.20623 24.2934 13.6709 24.2934C13.8576 24.2934 14.0404 24.3046 14.2236 24.3158C14.2793 24.3192 14.3355 24.3227 14.3913 24.3258V3.00775C14.3913 1.34944 15.9194 0 17.7972 0H37.8402C39.7181 0 41.2455 1.34944 41.2455 3.00775V12.1467ZM23.2598 38.2331C23.2748 38.1712 23.2971 38.114 23.3325 38.0614C23.8132 37.0046 24.085 35.8541 24.0844 34.6476C24.0844 29.5766 19.4124 25.4508 13.6702 25.4508C7.92802 25.4508 3.25606 29.576 3.25606 34.6476C3.25606 39.7179 7.92802 43.8438 13.6702 43.8438C17.9728 43.8438 21.6741 41.5278 23.2598 38.2331ZM24.8474 37.7704H39.9355V3.00775C39.9355 2.0042 38.976 1.15683 37.8402 1.15683H17.7972C16.6609 1.15683 15.7013 2.0042 15.7013 3.00775V24.46C21.1999 25.3131 25.395 29.5512 25.395 34.6476C25.395 35.7355 25.2018 36.7842 24.8474 37.7704ZM41.2455 37.7704H53.6901V15.1544C53.6901 14.1509 52.7305 13.3035 51.5948 13.3035H41.2455V37.7704ZM21.2687 7.22998C21.2687 6.91069 21.5621 6.65156 21.9237 6.65156C22.2859 6.65156 22.5786 6.91069 22.5786 7.22998V23.0785C22.5786 23.3978 22.2852 23.6569 21.9237 23.6569C21.5621 23.6569 21.2687 23.3978 21.2687 23.0785V7.22998ZM26.7705 7.22998C26.7705 6.91069 27.0639 6.65156 27.4255 6.65156C27.787 6.65156 28.0805 6.91069 28.0805 7.22998V31.639C28.0805 31.9589 27.787 32.2174 27.4255 32.2174C27.0639 32.2174 26.7705 31.9589 26.7705 31.639V7.22998ZM32.9927 6.65156C32.6305 6.65156 32.3378 6.91069 32.3378 7.22998V31.639C32.3378 31.9589 32.6305 32.2174 32.9927 32.2174C33.3549 32.2174 33.6477 31.9589 33.6477 31.639V7.22998C33.6477 6.91069 33.3549 6.65156 32.9927 6.65156ZM50.9397 17.6414H43.9963C43.6341 17.6414 43.3413 17.9005 43.3413 18.2198C43.3413 18.5391 43.6341 18.7982 43.9963 18.7982H50.9397C51.3019 18.7982 51.5947 18.5391 51.5947 18.2198C51.5947 17.9005 51.3013 17.6414 50.9397 17.6414ZM43.9963 22.5004H50.9397C51.3013 22.5004 51.5947 22.7596 51.5947 23.0789C51.5947 23.3981 51.3019 23.6573 50.9397 23.6573H43.9963C43.6341 23.6573 43.3413 23.3981 43.3413 23.0789C43.3413 22.7596 43.6341 22.5004 43.9963 22.5004ZM50.9397 27.359H43.9963C43.6341 27.359 43.3413 27.6176 43.3413 27.9374C43.3413 28.2573 43.6341 28.5159 43.9963 28.5159H50.9397C51.3019 28.5159 51.5947 28.2573 51.5947 27.9374C51.5947 27.6176 51.3013 27.359 50.9397 27.359ZM43.9963 32.2754H50.9397C51.3013 32.2754 51.5947 32.534 51.5947 32.8538C51.5947 33.1737 51.3019 33.4322 50.9397 33.4322H43.9963C43.6341 33.4322 43.3413 33.1737 43.3413 32.8538C43.3413 32.534 43.6341 32.2754 43.9963 32.2754ZM8.82385 33.4323V39.5635H12.2952V35.8617H15.0461V39.5635H18.452V33.4323L13.6707 29.7883L8.82385 33.4323ZM3.77605 25.2796C3.65946 25.3559 3.52323 25.3924 3.3883 25.3924C3.18722 25.3924 2.98877 25.3114 2.86105 25.1576C0.26471 22.048 -0.586763 19.0183 0.39767 16.3957C1.38734 13.7599 4.22733 11.6944 8.62355 10.3953L4.47164 9.46808C4.12057 9.38942 3.90836 9.07476 3.99743 8.76531C4.08586 8.45528 4.44478 8.26961 4.79258 8.34654L10.4909 9.61905C10.6776 9.66069 10.8341 9.77291 10.9186 9.92619C11.0037 10.0789 11.0077 10.257 10.9297 10.4132L8.50631 15.2719C8.39824 15.4882 8.15786 15.6172 7.90635 15.6172C7.81858 15.6172 7.72885 15.6016 7.64239 15.568C7.31097 15.4396 7.16098 15.0984 7.30704 14.8057L8.94711 11.518C5.00938 12.6968 2.48836 14.5009 1.64017 16.7601C0.795243 19.0108 1.58122 21.6772 3.91425 24.471C4.12974 24.7278 4.06752 25.0905 3.77605 25.2796Z" fill="black"/>
</g>
<defs>
<clipPath id="clip0_134_763">
<rect width="55" height="45" fill="white"/>
</clipPath>
</defs>
</svg>
